HIERARCHY
ROOT hip
{
  OFFSET 37.6952 44.9515 56.0618
  CHANNELS 6 Xposition Yposition Zposition Zrotation Xrotation Yrotation
  JOINT abdomen
  {
    OFFSET 0 6.09653 0.699602
    CHANNELS 3 Zrotation Xrotation Yrotation
    JOINT chest
    {
      OFFSET 0 2.49857 -0.699602
      CHANNELS 3 Zrotation Xrotation Yrotation
      JOINT rCollar
      {
        OFFSET -1.49915 11.2936 -1.69903
        CHANNELS 3 Zrotation Xrotation Yrotation
        JOINT rShldr
        {
          OFFSET -4.89721 -0.299829 0.799545
          CHANNELS 3 Zrotation Xrotation Yrotation
          JOINT rForeArm
          {
            OFFSET -12.4216 -1.19922 0.931564
            CHANNELS 3 Zrotation Xrotation Yrotation
            JOINT rHand
            {
              OFFSET -9.86568 0.0998477 3.66582
              CHANNELS 3 Zrotation Xrotation Yrotation
              JOINT rRing1
              {
                OFFSET -3.39807 0.399775 0.299829
                CHANNELS 3 Zrotation Xrotation Yrotation
                JOINT rRing2
                {
                  OFFSET -1.29926 -0.199888 0.399772
                  CHANNELS 3 Zrotation Xrotation Yrotation
                  End Site
                  {
                    OFFSET -0.899487 -0.0999402 0.199886
                  }
                }
              }
              JOINT rMid1
              {
                OFFSET -2.99829 0.499717 1.09937
                CHANNELS 3 Zrotation Xrotation Yrotation
                JOINT rMid2
                {
                  OFFSET -1.45827 -0.0999391 0.600149
                  CHANNELS 3 Zrotation Xrotation Yrotation
                  End Site
                  {
                    OFFSET -1.0403 -0.0999474 0.399282
                  }
                }
              }
              JOINT rPinky1
              {
                OFFSET -3.29812 0.0999423 -0.399772
                CHANNELS 3 Zrotation Xrotation Yrotation
                JOINT rPinky2
                {
                  OFFSET -0.899492 -0.0999405 0
                  CHANNELS 3 Zrotation Xrotation Yrotation
                  End Site
                  {
                    OFFSET -0.999429 -0.0999421 0
                  }
                }
              }
              JOINT rIndex1
              {
                OFFSET -2.69847 0.399775 2.09881
                CHANNELS 3 Zrotation Xrotation Yrotation
                JOINT rIndex2
                {
                  OFFSET -1.33823 -0.200883 0.6843
                  CHANNELS 3 Zrotation Xrotation Yrotation
                  End Site
                  {
                    OFFSET -0.760569 0.00099747 0.415074
                  }
                }
              }
              JOINT rThumb1
              {
                OFFSET -0.399773 -0.39977 1.19932
                CHANNELS 3 Zrotation Xrotation Yrotation
                JOINT rThumb2
                {
                  OFFSET -0.998132 0 1.47145
                  CHANNELS 3 Zrotation Xrotation Yrotation
                  End Site
                  {
                    OFFSET -0.977841 -0.278837 0.829828
                  }
                }
              }
            }
          }
        }
      }
      JOINT lCollar
      {
        OFFSET 1.49915 11.2936 -1.69903
        CHANNELS 3 Zrotation Xrotation Yrotation
        JOINT lShldr
        {
          OFFSET 4.89721 -0.299833 0.799545
          CHANNELS 3 Zrotation Xrotation Yrotation
          JOINT lForeArm
          {
            OFFSET 12.4216 -1.19922 0.931564
            CHANNELS 3 Zrotation Xrotation Yrotation
            JOINT lHand
            {
              OFFSET 9.86568 0.0998482 3.66582
              CHANNELS 3 Zrotation Xrotation Yrotation
              JOINT lPinky1
              {
                OFFSET 3.29812 0.0999421 -0.399772
                CHANNELS 3 Zrotation Xrotation Yrotation
                JOINT lPinky2
                {
                  OFFSET 0.899488 -0.0999427 0
                  CHANNELS 3 Zrotation Xrotation Yrotation
                  End Site
                  {
                    OFFSET 0.999427 -0.0999418 0
                  }
                }
              }
              JOINT lThumb1
              {
                OFFSET 0.399772 -0.399773 1.19932
                CHANNELS 3 Zrotation Xrotation Yrotation
                JOINT lThumb2
                {
                  OFFSET 0.99813 0 1.47145
                  CHANNELS 3 Zrotation Xrotation Yrotation
                  End Site
                  {
                    OFFSET 0.97784 -0.27884 0.829828
                  }
                }
              }
              JOINT lRing1
              {
                OFFSET 3.39806 0.399773 0.299829
                CHANNELS 3 Zrotation Xrotation Yrotation
                JOINT lRing2
                {
                  OFFSET 1.29926 -0.199886 0.399772
                  CHANNELS 3 Zrotation Xrotation Yrotation
                  End Site
                  {
                    OFFSET 0.899489 -0.0999425 0.199886
                  }
                }
              }
              JOINT lMid1
              {
                OFFSET 2.99829 0.499714 1.09937
                CHANNELS 3 Zrotation Xrotation Yrotation
                JOINT lMid2
                {
                  OFFSET 1.45827 -0.0999388 0.600149
                  CHANNELS 3 Zrotation Xrotation Yrotation
                  End Site
                  {
                    OFFSET 1.04031 -0.0999473 0.399282
                  }
                }
              }
              JOINT lIndex1
              {
                OFFSET 2.69846 0.399775 2.09881
                CHANNELS 3 Zrotation Xrotation Yrotation
                JOINT lIndex2
                {
                  OFFSET 1.33823 -0.200884 0.6843
                  CHANNELS 3 Zrotation Xrotation Yrotation
                  End Site
                  {
                    OFFSET 0.760567 0.00099574 0.415074
                  }
                }
              }
            }
          }
        }
      }
      JOINT neck
      {
        OFFSET 0 12.4929 -0.499715
        CHANNELS 3 Zrotation Xrotation Yrotation
        JOINT head
        {
          OFFSET 0 3.59795 0.299829
          CHANNELS 3 Zrotation Xrotation Yrotation
          JOINT rightEye
          {
            OFFSET -1.19932 3.69789 3.19818
            CHANNELS 3 Zrotation Xrotation Yrotation
            End Site
            {
              OFFSET 0 0 0
            }
          }
          JOINT leftEye
          {
            OFFSET 1.19932 3.69789 3.19818
            CHANNELS 3 Zrotation Xrotation Yrotation
            End Site
            {
              OFFSET 0 0 0
            }
          }
        }
      }
    }
  }
  JOINT lButtock
  {
    OFFSET 4.19761 -0.599656 -0.299829
    CHANNELS 3 Zrotation Xrotation Yrotation
    JOINT lThigh
    {
      OFFSET 0 -1.49914 0
      CHANNELS 3 Zrotation Xrotation Yrotation
      JOINT lShin
      {
        OFFSET -0.699602 -17.6899 -1.09937
        CHANNELS 3 Zrotation Xrotation Yrotation
        JOINT lFoot
        {
          OFFSET 0.699602 -18.0897 -0.699602
          CHANNELS 3 Zrotation Xrotation Yrotation
          End Site
          {
            OFFSET 0 -2.0988 5.59681
          }
        }
      }
    }
  }
  JOINT rButtock
  {
    OFFSET -4.19761 -0.599656 -0.299829
    CHANNELS 3 Zrotation Xrotation Yrotation
    JOINT rThigh
    {
      OFFSET 0 -1.49915 0
      CHANNELS 3 Zrotation Xrotation Yrotation
      JOINT rShin
      {
        OFFSET 0.699602 -17.6899 -1.09938
        CHANNELS 3 Zrotation Xrotation Yrotation
        JOINT rFoot
        {
          OFFSET -0.699602 -18.0897 -0.699602
          CHANNELS 3 Zrotation Xrotation Yrotation
          End Site
          {
            OFFSET 0 -2.09881 5.59681
          }
        }
      }
    }
  }
}
MOTION
Frames:	9
Frame Time:	0.0333333
37.6952 44.9515 56.0618 -0.133162 -0.0751471 173.675 -0.00975517 -0.00975351 -0.00975351 2.73927 -3.41339 4.03708 -1.91408 -0.538456 9.40565 79.103 20.7678 -11.4155 -15.4018 11.0727 44.8006 3.78684 1.70441 6.21766 -0.0076249 -0.00786884 -0.0111468 2.42704 -0.497593 4.4329 -0.00609391 -0.00835704 -0.0103546 -0.219776 0.404223 1.44943 -0.00959223 -0.00830573 -0.011036 0.629425 -0.00953168 -0.000952463 -0.00535605 -0.00715066 -0.010956 8.61171 -0.00190224 -1.79828 4.37758e-005 -0.045627 -0.00979269 -9.39785 -7.91692 -0.663802 -6.46538 1.07271 -6.14132 -73.2316 -5.27527 21.5783 16.3713 14.4554 -39.4565 -12.8676 4.43599 2.56869 -0.00988691 -0.01101 -0.00833476 -0.629867 -0.00995831 0.00100878 4.52438e-005 -0.045624 -0.00980703 9.41156 -7.94154 0.625638 -0.011865 -0.0109703 -0.00813966 -2.42847 -0.502394 -4.43241 -0.0134423 -0.009699 -0.00912411 0.204766 0.414791 -1.45043 -0.0141269 -0.010082 -0.00835627 -8.62293 -0.0232385 1.79819 -2.62958 3.62898 -3.7142 -5.76341 -34.3772 3.1754 0 0 0 0 0 0 -0.00975517 -0.00983547 -0.00969887 -4.59217 -14.8935 5.7239 -0.313371 6.21412 -7.25096 4.60753 35.9492 -0.232847 -0.00975517 -0.00969887 -0.00983547 0.574868 16.3213 -0.66679 0.381153 4.63621 10.013 -0.530676 57.6341 -2.08073 
37.6407 45.1077 54.9194 -1.00183 0.497346 173.749 -0.00975517 -0.00975351 -0.00975351 2.4033 -2.43672 3.37508 -1.48846 -0.467651 11.4285 78.4956 18.7921 -13.9258 -16.0504 11.4264 44.7975 6.86051 2.87592 4.14043 -0.0076249 -0.00786884 -0.0111468 2.42704 -0.497593 4.4329 -0.00609391 -0.00835704 -0.0103546 -0.219776 0.404223 1.44943 -0.00959223 -0.00830573 -0.011036 0.629425 -0.00953168 -0.000952463 -0.00535605 -0.00715066 -0.010956 8.61171 -0.00190224 -1.79828 4.37758e-005 -0.045627 -0.00979269 -9.39785 -7.91692 -0.663802 -7.73292 1.48092 -8.98138 -73.2557 -0.849727 20.2695 14.9257 12.1413 -42.0868 -10.589 3.61793 2.74691 -0.00988691 -0.01101 -0.00833476 -0.629867 -0.00995831 0.00100878 4.52438e-005 -0.045624 -0.00980703 9.41156 -7.94154 0.625638 -0.011865 -0.0109703 -0.00813966 -2.42847 -0.502394 -4.43241 -0.0134423 -0.009699 -0.00912411 0.204766 0.414791 -1.45043 -0.0141269 -0.010082 -0.00835627 -8.62293 -0.0232385 1.79819 -3.31575 2.65794 -3.2369 -5.41899 -34.2147 3.39777 0 0 0 0 0 0 -0.00975517 -0.00983547 -0.00969887 -5.76423 -12.4512 6.33679 -0.32269 5.87613 -7.54909 4.97295 34.5722 -0.356949 -0.00975517 -0.00969887 -0.00983547 -1.26836 6.46651 -3.56375 0.633144 20.1694 7.00085 -5.80167 53.8384 0.903153 
37.6476 45.2242 53.7678 -0.784333 0.38437 172.841 -0.00975517 -0.00975351 -0.00975351 2.72948 -2.15872 2.90606 -1.4829 -0.467178 9.8929 78.5501 19.789 -14.8927 -15.7414 11.9175 43.4527 7.86271 3.26506 3.84155 -0.0076249 -0.00786884 -0.0111468 2.42704 -0.497593 4.4329 -0.00609391 -0.00835704 -0.0103546 -0.219776 0.404223 1.44943 -0.00959223 -0.00830573 -0.011036 0.629425 -0.00953168 -0.000952463 -0.00535605 -0.00715066 -0.010956 8.61171 -0.00190224 -1.79828 4.37758e-005 -0.045627 -0.00979269 -9.39785 -7.91692 -0.663802 -7.14822 1.30148 -7.89125 -74.3303 1.18633 18.0068 14.1947 11.043 -43.5085 -6.74663 2.34302 1.99302 -0.00988691 -0.01101 -0.00833476 -0.629867 -0.00995831 0.00100878 4.52438e-005 -0.045624 -0.00980703 9.41156 -7.94154 0.625638 -0.011865 -0.0109703 -0.00813966 -2.42847 -0.502394 -4.43241 -0.0134423 -0.009699 -0.00912411 0.204766 0.414791 -1.45043 -0.0141269 -0.010082 -0.00835627 -8.62293 -0.0232385 1.79819 -3.45299 2.35846 -2.77658 -4.79817 -34.4768 4.62616 0 0 0 0 0 0 -0.00975517 -0.00983547 -0.00969887 -5.57858 -11.2182 6.26583 -0.271069 6.72781 -6.03074 5.09656 32.4752 -0.386817 -0.00975517 -0.00969887 -0.00983547 -1.04908 0.638613 -1.2702 1.68035 24.5323 2.75989 -8.00269 48.3659 1.8815 
37.6321 45.3637 52.6499 -0.221864 -0.0960036 172.296 -0.00975517 -0.00975351 -0.00975351 3.29232 -2.09609 2.33974 -1.1518 -0.407288 11.0458 78.9995 17.9445 -16.7576 -15.6749 11.5468 44.1287 8.50757 3.31367 1.58561 -0.0076249 -0.00786884 -0.0111468 2.42704 -0.497593 4.4329 -0.00609391 -0.00835704 -0.0103546 -0.219776 0.404223 1.44943 -0.00959223 -0.00830573 -0.011036 0.629425 -0.00953168 -0.000952463 -0.00535605 -0.00715066 -0.010956 8.61171 -0.00190224 -1.79828 4.37758e-005 -0.045627 -0.00979269 -9.39785 -7.91692 -0.663802 -7.50013 1.52846 -10.0275 -72.9279 0.598454 16.2457 13.6321 10.1695 -44.7866 -5.36465 1.90931 1.13082 -0.00988691 -0.01101 -0.00833476 -0.629867 -0.00995831 0.00100878 4.52438e-005 -0.045624 -0.00980703 9.41156 -7.94154 0.625638 -0.011865 -0.0109703 -0.00813966 -2.42847 -0.502394 -4.43241 -0.0134423 -0.009699 -0.00912411 0.204766 0.414791 -1.45043 -0.0141269 -0.010082 -0.00835627 -8.62293 -0.0232385 1.79819 -3.42219 2.25971 -2.21412 -4.53275 -34.9578 5.31079 0 0 0 0 0 0 -0.00975517 -0.00983547 -0.00969887 -5.07418 -10.457 6.08105 -0.252346 7.83977 -5.35635 5.34254 30.2684 -0.448652 -0.00975517 -0.00969887 -0.00983547 -0.330338 -7.50537 3.08256 4.73152 31.4012 -5.22427 -10.0318 41.024 2.44958 
37.627 45.5674 51.5168 0.499558 -0.452568 172.192 -0.00975517 -0.00975351 -0.00975351 3.8376 -2.00188 1.56347 -0.614655 -0.31306 10.7679 79.435 16.8871 -18.5486 -15.1663 11.208 44.2447 8.11614 2.97813 -0.422357 -0.0076249 -0.00786884 -0.0111468 2.42704 -0.497593 4.4329 -0.00609391 -0.00835704 -0.0103546 -0.219776 0.404223 1.44943 -0.00959223 -0.00830573 -0.011036 0.629425 -0.00953168 -0.000952463 -0.00535605 -0.00715066 -0.010956 8.61171 -0.00190224 -1.79828 4.37758e-005 -0.045627 -0.00979269 -9.39785 -7.91692 -0.663802 -8.73819 2.00373 -12.8571 -70.3715 -0.320701 15.595 13.9086 9.31974 -47.1053 -5.09312 1.82188 0.954082 -0.00988691 -0.01101 -0.00833476 -0.629867 -0.00995831 0.00100878 4.52438e-005 -0.045624 -0.00980703 9.41156 -7.94154 0.625638 -0.011865 -0.0109703 -0.00813966 -2.42847 -0.502394 -4.43241 -0.0134423 -0.009699 -0.00912411 0.204766 0.414791 -1.45043 -0.0141269 -0.010082 -0.00835627 -8.62293 -0.0232385 1.79819 -3.23663 2.11387 -1.4543 -4.47438 -35.0124 5.43334 0 0 0 0 0 0 -0.00975517 -0.00983547 -0.00969887 -4.52053 -9.04361 5.71901 -0.244261 8.02358 -5.12739 5.6459 28.1421 -0.517989 -0.00975517 -0.00969887 -0.00983547 0.577052 -12.0614 2.38625 4.66571 30.837 -6.17404 -11.333 39.124 2.85442 
37.6389 45.7792 50.3501 1.68296 -0.766221 172.417 -0.00975517 -0.00975351 -0.00975351 4.60988 -2.11197 0.772169 0.362951 -0.183623 8.17863 79.3361 17.219 -20.2159 -15.0872 11.7058 43.1105 7.65674 2.79597 -0.56681 -0.0076249 -0.00786884 -0.0111468 2.42703 -0.497593 4.4329 -0.00609391 -0.00835704 -0.0103546 -0.219776 0.404223 1.44943 -0.00959223 -0.00830573 -0.011036 0.629425 -0.00953168 -0.000952463 -0.00535605 -0.00715066 -0.010956 8.61171 -0.00190224 -1.79828 4.37758e-005 -0.045627 -0.00979269 -9.39785 -7.91692 -0.663802 -8.79114 2.03113 -13.0375 -69.6322 1.63482 14.4143 14.7311 8.712 -49.4112 -4.43798 1.54097 1.75653 -0.00988691 -0.01101 -0.00833476 -0.629867 -0.00995831 0.00100878 4.52438e-005 -0.045624 -0.00980703 9.41156 -7.94154 0.625638 -0.011865 -0.0109703 -0.00813966 -2.42847 -0.502394 -4.43241 -0.0134423 -0.009699 -0.00912411 0.204766 0.414791 -1.45043 -0.0141269 -0.010082 -0.00835627 -8.62293 -0.0232385 1.79819 -2.82322 2.17411 -0.67414 -4.52463 -34.8003 5.18293 0 0 0 0 0 0 -0.00975517 -0.00983547 -0.00969887 -3.60195 -7.11049 5.16369 -0.234185 7.36947 -4.97612 5.98236 26.1868 -0.587023 -0.00975517 -0.00969887 -0.00983547 2.57264 -13.063 -2.20159 1.24444 23.4406 -0.616369 -11.2451 41.2384 2.95853 
37.6668 45.957 49.1817 3.18236 -1.10662 173.077 -0.00975517 -0.00975351 -0.00975351 5.46021 -2.22388 0.0316694 1.47238 -0.0871383 5.38938 79.0733 17.0352 -21.9461 -16.1272 12.8362 42.0993 8.17904 3.01188 -0.307133 -0.0076249 -0.00786884 -0.0111468 2.42703 -0.497593 4.4329 -0.00609391 -0.00835704 -0.0103546 -0.219776 0.404223 1.44943 -0.00959223 -0.00830573 -0.011036 0.629425 -0.00953168 -0.000952463 -0.00535605 -0.00715066 -0.010956 8.61171 -0.00190224 -1.79828 4.37758e-005 -0.045627 -0.00979269 -9.39785 -7.91692 -0.663802 -7.36389 1.63117 -11.5931 -70.378 5.22094 11.905 16.389 8.83711 -50.6845 -4.04047 1.35808 2.59953 -0.00988691 -0.01101 -0.00833476 -0.629867 -0.00995831 0.00100878 4.52438e-005 -0.045624 -0.00980703 9.41156 -7.94154 0.625638 -0.011865 -0.0109703 -0.00813966 -2.42847 -0.502394 -4.43241 -0.0134423 -0.009699 -0.00912411 0.204766 0.414791 -1.45043 -0.0141269 -0.010082 -0.00835627 -8.62293 -0.0232385 1.79819 -2.17766 2.25014 0.041713 -4.69261 -34.5266 4.53688 0 0 0 0 0 0 -0.00975517 -0.00983547 -0.00969887 -2.31381 -4.99005 4.45148 -0.218225 6.32756 -4.72034 6.21863 24.9016 -0.629916 -0.00975517 -0.00969887 -0.00983547 5.0409 -13.4903 -4.59489 0.110091 14.4394 2.98691 -10.1088 41.2723 2.49456 
37.7537 46.0482 48.0374 4.52426 -1.58298 174.468 -0.00975517 -0.00975351 -0.00975351 5.88165 -2.19329 -0.968451 2.25319 -0.048447 3.52931 79.0144 15.7923 -22.942 -15.9956 13.4994 40.6803 7.57791 2.73978 -0.88656 -0.0076249 -0.00786884 -0.0111468 2.42703 -0.497593 4.4329 -0.00609391 -0.00835704 -0.0103546 -0.219776 0.404223 1.44943 -0.00959223 -0.00830573 -0.011036 0.629425 -0.00953168 -0.000952463 -0.00535605 -0.00715066 -0.010956 8.61171 -0.00190224 -1.79828 4.37758e-005 -0.045627 -0.00979269 -9.39785 -7.91692 -0.663802 -4.99761 1.1538 -10.9158 -71.5386 7.70824 8.88544 17.4791 9.03894 -51.1899 -4.18228 1.37427 3.24833 -0.00988691 -0.01101 -0.00833476 -0.629867 -0.00995831 0.00100878 4.52438e-005 -0.045624 -0.00980703 9.41156 -7.94154 0.625638 -0.011865 -0.0109703 -0.00813966 -2.42847 -0.502394 -4.43241 -0.0134423 -0.009699 -0.00912411 0.204766 0.414791 -1.45043 -0.0141269 -0.010082 -0.00835627 -8.62293 -0.0232385 1.79819 -1.27293 2.19812 1.00073 -5.28338 -34.4606 3.01847 0 0 0 0 0 0 -0.00975517 -0.00983547 -0.00969887 -1.03511 -3.07545 3.62804 -0.207221 5.19142 -4.58293 6.21866 24.7877 -0.628099 -0.00975517 -0.00969887 -0.00983547 7.45788 -14.7493 -3.37506 0.0962415 6.59654 2.84449 -8.16135 40.868 1.68188 
37.8732 45.9929 46.8464 5.22349 -1.86605 176.028 -0.00975517 -0.00975351 -0.00975351 5.56534 -2.24001 -2.06134 3.21111 0.0307929 2.84063 78.8695 13.6175 -24.3178 -15.5903 13.4817 40.208 6.79123 2.32318 -2.57826 -0.0076249 -0.00786884 -0.0111468 2.42703 -0.497593 4.4329 -0.00609391 -0.00835704 -0.0103546 -0.219776 0.404223 1.44943 -0.00959223 -0.00830573 -0.011036 0.629425 -0.00953168 -0.000952463 -0.00535605 -0.00715066 -0.010956 8.61171 -0.00190224 -1.79828 4.37758e-005 -0.045627 -0.00979269 -9.39785 -7.91692 -0.663802 -3.22665 0.861759 -11.4654 -71.8333 8.75721 6.8193 16.9976 8.5662 -51.7934 -4.99157 1.63431 3.51073 -0.00988691 -0.01101 -0.00833476 -0.629867 -0.00995831 0.00100878 4.52438e-005 -0.045624 -0.00980703 9.41156 -7.94154 0.625638 -0.011865 -0.0109703 -0.00813966 -2.42847 -0.502394 -4.43241 -0.0134423 -0.009699 -0.00912411 0.204766 0.414791 -1.45043 -0.0141269 -0.010082 -0.00835627 -8.62293 -0.0232385 1.79819 -0.339286 2.26018 2.11978 -5.80023 -34.5114 0.982605 0 0 0 0 0 0 -0.00975517 -0.00983547 -0.00969887 -0.290667 -1.99264 2.74757 -0.212118 6.03817 -4.60571 6.31168 23.3289 -0.627416 -0.00975517 -0.00969887 -0.00983547 8.89565 -17.0585 -1.56204 0.100332 1.5468 2.80874 -5.90327 39.5343 0.747332 
